<svg width="66" height="60" viewBox="0 0 66 60" fill="none" xmlns="http://www.w3.org/2000/svg">
<path fill-rule="evenodd" clip-rule="evenodd" d="M40.0125 18.7641C40.4066 18.086 40.9728 17.5261 41.6529 17.142L40.1593 12.09C39.3522 12.2306 38.5222 12.1404 37.7633 11.8295C37.0045 11.5185 36.3473 10.9994 35.8662 10.331C35.3851 9.66254 35.0994 8.87154 35.0416 8.04769C34.9837 7.22384 35.156 6.40013 35.5388 5.67L31.2426 2.304C30.674 2.7731 29.9976 3.09054 29.2755 3.22712C28.5534 3.36371 27.8089 3.31505 27.1103 3.08563C26.4117 2.85622 25.7816 2.4534 25.2778 1.91421C24.774 1.37503 24.4127 0.716785 24.2271 0L17.3752 0.0150003C17.1874 0.728437 16.8254 1.38308 16.3222 1.91915C15.8189 2.45522 15.1906 2.85565 14.4944 3.08387C13.7982 3.3121 13.0564 3.36084 12.3368 3.22566C11.6171 3.09048 10.9425 2.77568 10.3745 2.31L6.0843 5.709C6.45691 6.43627 6.62186 7.25361 6.56075 8.06988C6.49964 8.88614 6.21488 9.66925 5.73821 10.3319C5.26155 10.9945 4.61171 11.5106 3.86118 11.8226C3.11065 12.1346 2.28891 12.2303 1.4876 12.099L0 17.169C0.668041 17.5567 1.22294 18.1151 1.60878 18.788C1.99462 19.4608 2.19778 20.2243 2.19778 21.0015C2.19778 21.7787 1.99462 22.5422 1.60878 23.215C1.22294 23.8879 0.668041 24.4463 0 24.834L1.4876 29.904C2.28891 29.7727 3.11065 29.8684 3.86118 30.1804C4.61171 30.4924 5.26155 31.0085 5.73821 31.6711C6.21488 32.3338 6.49964 33.1169 6.56075 33.9331C6.62186 34.7494 6.45691 35.5667 6.0843 36.294L10.3745 39.687C10.9425 39.222 11.6169 38.9078 12.3362 38.773C13.0554 38.6382 13.7967 38.6871 14.4925 38.9153C15.1882 39.1435 15.8162 39.5436 16.3192 40.0793C16.8222 40.615 17.1842 41.2691 17.3722 41.982L24.2271 42C24.4124 41.2827 24.7738 40.6239 25.2778 40.0843C25.7818 39.5447 26.4123 39.1416 27.1113 38.9122C27.8104 38.6827 28.5554 38.6342 29.2778 38.7712C30.0003 38.9082 30.677 39.2262 31.2456 39.696L35.5388 36.33C35.156 35.5999 34.9837 34.7762 35.0416 33.9523C35.0994 33.1285 35.3851 32.3375 35.8662 31.669C36.3473 31.0006 37.0045 30.4815 37.7633 30.1705C38.5222 29.8596 39.3522 29.7694 40.1593 29.91L41.6529 24.858C40.9728 24.4739 40.4066 23.914 40.0125 23.2359C39.6183 22.5578 39.4106 21.786 39.4106 21C39.4106 20.214 39.6183 19.4422 40.0125 18.7641ZM27.1378 27.364C25.4639 29.0518 23.1937 30 20.8264 30C18.4592 30 16.189 29.0518 14.5151 27.364C12.8412 25.6761 11.9008 23.3869 11.9008 21C11.9008 18.6131 12.8412 16.3239 14.5151 14.636C16.189 12.9482 18.4592 12 20.8264 12C23.1937 12 25.4639 12.9482 27.1378 14.636C28.8117 16.3239 29.7521 18.6131 29.7521 21C29.7521 23.3869 28.8117 25.6761 27.1378 27.364Z" fill="black"/>
<path d="M42.8221 30.183C44.404 26.3364 44.9629 22.1401 44.4436 18.009L48.0317 18C48.2173 18.7168 48.5786 19.375 49.0824 19.9142C49.5862 20.4534 50.2164 20.8562 50.9149 21.0856C51.6135 21.3151 52.358 21.3637 53.0801 21.2271C53.8022 21.0905 54.4787 20.7731 55.0473 20.304L59.3435 23.67C58.9606 24.4001 58.7883 25.2238 58.8462 26.0477C58.9041 26.8715 59.1897 27.6625 59.6708 28.331C60.1519 28.9994 60.8091 29.5185 61.568 29.8295C62.3268 30.1404 63.1568 30.2306 63.964 30.09L65.4545 35.142C64.7745 35.5261 64.2082 36.086 63.8141 36.7641C63.42 37.4422 63.2122 38.214 63.2122 39C63.2122 39.786 63.42 40.5578 63.8141 41.2359C64.2082 41.914 64.7745 42.4739 65.4545 42.858L63.961 47.91C63.1539 47.7694 62.3238 47.8596 61.565 48.1705C60.8062 48.4815 60.1489 49.0006 59.6678 49.669C59.1868 50.3375 58.9011 51.1285 58.8432 51.9523C58.7854 52.7762 58.9576 53.5999 59.3405 54.33L55.0473 57.696C54.4787 57.2262 53.802 56.9082 53.0795 56.7712C52.357 56.6342 51.612 56.6827 50.913 56.9122C50.214 57.1416 49.5834 57.5447 49.0794 58.0843C48.5754 58.6239 48.2141 59.2827 48.0288 60L41.1739 59.982C40.9859 59.2691 40.6239 58.615 40.1208 58.0793C39.6178 57.5436 38.9898 57.1435 38.2941 56.9153C37.5984 56.6871 36.8571 56.6382 36.1378 56.773C35.4185 56.9078 34.7442 57.222 34.1762 57.687L29.886 54.294C30.2586 53.5667 30.4235 52.7494 30.3624 51.9331C30.3013 51.1169 30.0165 50.3338 29.5399 49.6711C29.0632 49.0085 28.4134 48.4924 27.6628 48.1804C26.9123 47.8684 26.0906 47.7727 25.2893 47.904L24.361 44.736C28.5256 44.1103 32.4497 42.3768 35.7293 39.714C35.8736 41.5357 36.5645 43.2699 37.7102 44.6861C38.8558 46.1022 40.4018 47.1331 42.1426 47.6417C43.8834 48.1502 45.7366 48.1124 47.4555 47.5331C49.1745 46.9539 50.6778 45.8607 51.7657 44.399C52.8535 42.9373 53.4742 41.1762 53.5453 39.3501C53.6164 37.524 53.1344 35.7194 52.1636 34.1761C51.1927 32.6329 49.7789 31.4243 48.1103 30.711C46.4416 29.9977 44.5971 29.8136 42.8221 30.183Z" fill="black"/>
</svg>
