<svg width="80" height="50" viewBox="0 0 80 50" fill="none" xmlns="http://www.w3.org/2000/svg">
<path d="M25.0702 0C32.0063 0 37.6053 5.58333 37.6053 12.5C37.6053 19.4167 32.0063 25 25.0702 25C18.1341 25 12.5351 19.4167 12.5351 12.5C12.5351 5.58333 18.1341 0 25.0702 0Z" fill="black"/>
<path d="M50.1405 50H0V45.8333C0 37.5 16.7135 32.9167 25.0702 32.9167C33.427 32.9167 50.1405 37.5 50.1405 45.8333V50Z" fill="black"/>
<path d="M66.2272 33.3333H73.0797L79.389 41.6667L71.0741 49.9583C65.5385 45.8215 61.5285 39.9771 59.6671 33.3333C58.915 30.6667 58.4972 27.875 58.4972 25C58.4972 22.125 58.915 19.3333 59.6671 16.6667C61.5175 10.0179 65.5298 4.17011 71.0741 0.0416679L79.389 8.33333L73.0797 16.6667H66.2272C65.3079 19.2917 64.7647 22.0833 64.7647 25C64.7647 27.9167 65.3079 30.7083 66.2272 33.3333Z" fill="black"/>
</svg>
