<svg width="67" height="50" viewBox="0 0 67 50" fill="none" xmlns="http://www.w3.org/2000/svg">
<path d="M52.9577 10H46.338V6.66667C46.338 4.89856 45.6406 3.20286 44.3992 1.95262C43.1577 0.702379 41.474 0 39.7183 0H6.61972C4.86406 0 3.18031 0.702379 1.93887 1.95262C0.697432 3.20286 0 4.89856 0 6.66667V40H6.61972C6.61972 41.3132 6.87655 42.6136 7.37556 43.8268C7.87457 45.0401 8.60598 46.1425 9.52802 47.0711C10.4501 47.9997 11.5447 48.7362 12.7494 49.2388C13.9541 49.7413 15.2453 50 16.5493 50C17.8533 50 19.1445 49.7413 20.3492 49.2388C21.5539 48.7362 22.6485 47.9997 23.5706 47.0711C24.4926 46.1425 25.224 45.0401 25.723 43.8268C26.222 42.6136 26.4789 41.3132 26.4789 40H39.7183C39.7183 42.6522 40.7645 45.1957 42.6266 47.0711C44.4888 48.9464 47.0144 50 49.6479 50C52.2814 50 54.807 48.9464 56.6692 47.0711C58.5313 45.1957 59.5775 42.6522 59.5775 40H66.1972V23.3333L52.9577 10ZM16.5493 45C15.8971 44.9998 15.2513 44.8702 14.6488 44.6186C14.0464 44.3671 13.499 43.9985 13.038 43.5339C12.577 43.0693 12.2113 42.5178 11.9619 41.9108C11.7125 41.3039 11.5843 40.6535 11.5845 39.9967C11.5847 39.3398 11.7134 38.6895 11.9632 38.0827C12.213 37.476 12.579 36.9247 13.0403 36.4604C13.5016 35.9961 14.0493 35.6279 14.6519 35.3768C15.2545 35.1256 15.9004 34.9964 16.5526 34.9967C17.8698 34.9971 19.1329 35.5245 20.0639 36.4628C20.995 37.4011 21.5178 38.6735 21.5174 40C21.517 41.3265 20.9933 42.5985 20.0616 43.5362C19.1299 44.4739 17.8665 45.0004 16.5493 45ZM6.61972 30V6.66667H39.7183V30H6.61972ZM49.6479 45C48.9957 44.9998 48.3499 44.8702 47.7474 44.6186C47.145 44.3671 46.5976 43.9985 46.1366 43.5339C45.6755 43.0693 45.3099 42.5178 45.0605 41.9108C44.8111 41.3039 44.6829 40.6535 44.6831 39.9967C44.6833 39.3398 44.812 38.6895 45.0618 38.0827C45.3116 37.476 45.6776 36.9247 46.1389 36.4604C46.6002 35.9961 47.1479 35.6279 47.7505 35.3768C48.3531 35.1256 48.999 34.9964 49.6512 34.9967C50.9684 34.9971 52.2314 35.5245 53.1625 36.4628C54.0936 37.4011 54.6164 38.6735 54.616 40C54.6155 41.3265 54.0919 42.5985 53.1602 43.5362C52.2285 44.4739 50.9651 45.0004 49.6479 45Z" fill="black"/>
</svg>
