<svg width="69" height="50" viewBox="0 0 69 50" fill="none" xmlns="http://www.w3.org/2000/svg">
<path d="M45.454 25C42.5336 25 39.7097 23.696 37.4995 21.3295C35.3503 19.0213 34.0378 15.9432 33.8063 12.6648C33.5591 9.1676 34.6259 5.9517 36.8091 3.60795C38.9924 1.2642 42.0449 0 45.454 0C48.839 0 51.9 1.28693 54.0762 3.625C56.2736 5.98579 57.3432 9.19601 57.0961 12.6633C56.8588 15.946 55.5478 19.0227 53.4029 21.3281C51.1983 23.696 48.3759 25 45.454 25Z" fill="black"/>
<path d="M64.1802 49.9999H26.73C26.1279 50.0032 25.533 49.8682 24.9913 49.6054C24.4495 49.3427 23.9752 48.9591 23.605 48.4843C23.2122 47.9696 22.941 47.3727 22.8116 46.7383C22.6822 46.1039 22.698 45.4484 22.8578 44.821C24.0539 40.0184 27.0169 36.0355 31.426 33.3039C35.3394 30.8806 40.3209 29.5454 45.4544 29.5454C50.6888 29.5454 55.5396 30.8238 59.4757 33.2457C63.8947 35.963 66.862 39.9687 68.0524 44.8295C68.2103 45.4574 68.2243 46.1128 68.0934 46.7469C67.9626 47.381 67.6902 47.9773 67.2967 48.4914C66.9268 48.964 66.4537 49.3457 65.9135 49.6072C65.3733 49.8687 64.7804 50.003 64.1802 49.9999Z" fill="black"/>
<path d="M18.6077 25.5682C13.6091 25.5682 9.21426 20.9205 8.80659 15.2089C8.60488 12.2827 9.51681 9.57678 11.3634 7.5924C13.1901 5.62792 15.7668 4.54553 18.6077 4.54553C21.4486 4.54553 24.0054 5.6336 25.8421 7.60945C27.7029 9.60945 28.612 12.3097 28.3989 15.2117C27.9912 20.9219 23.5978 25.5682 18.6077 25.5682Z" fill="black"/>
<path d="M27.9345 30.0356C25.4359 28.814 22.193 28.2032 18.6092 28.2032C14.4245 28.2032 10.3606 29.2942 7.1646 31.2743C3.54103 33.5228 1.10353 36.797 0.119157 40.7501C-0.0248986 41.3187 -0.0385237 41.9125 0.0793005 42.4871C0.197125 43.0617 0.443348 43.6023 0.799553 44.0683C1.13755 44.5022 1.57055 44.8528 2.06527 45.0931C2.55999 45.3335 3.10324 45.4572 3.65324 45.4547H19.4203C19.6864 45.4546 19.9441 45.3612 20.1484 45.1906C20.3526 45.0201 20.4906 44.7832 20.5382 44.5214C20.5538 44.4319 20.5737 44.3424 20.5964 44.2544C21.801 39.4163 24.6234 35.3282 28.7938 32.3481C28.9472 32.2376 29.0706 32.0905 29.1528 31.9202C29.235 31.7499 29.2733 31.5618 29.2645 31.3729C29.2556 31.184 29.1997 31.0003 29.1019 30.8385C29.0041 30.6767 28.8674 30.5418 28.7044 30.4461C28.4813 30.3155 28.2257 30.1777 27.9345 30.0356Z" fill="black"/>
</svg>
