<svg width="62" height="50" viewBox="0 0 62 50" fill="none" xmlns="http://www.w3.org/2000/svg">
<path d="M60.5177 9.39774C60.3766 9.10741 60.1682 8.85502 59.9097 8.6616C59.6513 8.46819 59.3504 8.33936 59.032 8.28586C58.7137 8.23235 58.3872 8.25572 58.0798 8.35402C57.7723 8.45231 57.4928 8.62269 57.2645 8.85094L51.1175 14.9979C50.8668 15.2452 50.5288 15.3839 50.1766 15.3839C49.8244 15.3839 49.4863 15.2452 49.2356 14.9979L46.534 12.2964C46.2869 12.0453 46.1484 11.7071 46.1484 11.3548C46.1484 11.0025 46.2869 10.6643 46.534 10.4132L52.6486 4.29748C52.8825 4.06355 53.0556 3.77585 53.1527 3.45955C53.2497 3.14325 53.2678 2.80799 53.2053 2.4831C53.1428 2.1582 53.0017 1.85356 52.7942 1.59583C52.5868 1.3381 52.3193 1.13513 52.0153 1.00467C47.2431 -1.03831 41.31 0.109363 37.5942 3.80356C34.3723 7.00143 33.4085 11.9755 34.9503 17.4675C35.0168 17.7032 35.0165 17.9528 34.9494 18.1883C34.8824 18.4238 34.7512 18.6361 34.5706 18.8015L13.7922 38.1077C13.1038 38.727 12.5488 39.4799 12.1608 40.3206C11.7728 41.1614 11.5601 42.0723 11.5355 42.9979C11.511 43.9235 11.6751 44.8444 12.018 45.7045C12.3608 46.5647 12.8752 47.346 13.5298 48.0009C14.1844 48.6558 14.9654 49.1705 15.8253 49.5138C16.6853 49.8571 17.6061 50.0217 18.5317 49.9976C19.4574 49.9735 20.3684 49.7612 21.2093 49.3737C22.0502 48.9861 22.8035 48.4314 23.4231 47.7434L42.9023 26.929C43.0654 26.7524 43.2736 26.6236 43.5044 26.5565C43.7352 26.4893 43.9799 26.4864 44.2123 26.548C49.6202 27.9901 54.5474 27.0287 57.7236 23.9041C59.5503 22.1015 60.8253 19.5574 61.3157 16.7284C61.7759 14.0606 61.4851 11.3878 60.5177 9.39774Z" fill="black"/>
<path d="M52.5561 39.7074C50.8809 38.3146 47.302 35.0927 43.6547 31.7494L35.7147 40.235C39.1085 43.8403 42.1801 47.1872 43.5261 48.753L43.5345 48.7627C43.8578 49.1327 44.2534 49.4328 44.6969 49.6444C45.1404 49.856 45.6224 49.9747 46.1135 49.9933H46.2457C47.1898 49.9904 48.0955 49.6187 48.7694 48.9573L48.7778 48.9489L52.7953 44.9387C53.1442 44.5905 53.4167 44.1732 53.5951 43.7137C53.7735 43.2541 53.8539 42.7624 53.8313 42.2699C53.8087 41.7775 53.6835 41.2952 53.4637 40.8539C53.2439 40.4126 52.9343 40.0221 52.5549 39.7074H52.5561Z" fill="black"/>
<path d="M14.2455 20.0153C14.2475 19.5591 14.1227 19.1115 13.885 18.7222C13.8517 18.6695 13.8339 18.6086 13.8337 18.5463C13.8334 18.484 13.8507 18.4229 13.8836 18.37C13.9164 18.317 13.9635 18.2744 14.0194 18.247C14.0754 18.2196 14.1379 18.2085 14.1999 18.215H14.2071C14.308 18.2258 14.8476 18.304 15.6131 18.769C16.1816 19.1139 17.8039 20.2208 20.6281 23.0401C20.598 24.0003 20.905 24.9408 21.4957 25.6984L29.455 18.3016C28.75 17.6341 27.8289 17.2417 26.8592 17.1959C26.8501 17.1861 26.8417 17.1756 26.8339 17.1647L26.7558 17.0818L23.8067 13.015C23.4788 12.5698 23.2638 12.0518 23.1801 11.5053C23.0964 10.9588 23.1465 10.4002 23.326 9.87724C23.5965 9.09841 24.0885 8.41551 24.7417 7.91237C25.4255 7.38239 26.9685 6.74426 28.2796 6.6361C28.8904 6.58561 29.5052 6.62366 30.1051 6.74907C30.3925 6.81841 30.6758 6.90387 30.9536 7.00504C31.0377 7.03649 31.1241 7.0618 31.2119 7.08075C31.5934 7.16526 31.9915 7.13155 32.3534 6.98412C32.7152 6.83668 33.0235 6.58252 33.2373 6.25547C33.4511 5.92842 33.5601 5.54401 33.55 5.15343C33.5398 4.76285 33.4109 4.38464 33.1804 4.06915C33.1492 4.02709 33.0218 3.85404 32.8331 3.6209C32.4811 3.17689 32.0954 2.76066 31.6794 2.37588C30.7 1.49138 28.1619 3.96892e-06 24.8294 3.96892e-06C22.9223 -0.00139276 21.0329 0.365871 19.2653 1.08158C14.6541 2.9383 11.6377 5.47761 10.2509 6.82478L10.2401 6.83559C9.30691 7.757 8.44291 8.74592 7.6551 9.79432C7.35726 10.2143 7.16365 10.6992 7.09027 11.2088C7.05598 11.4256 6.94198 11.6218 6.77059 11.759C6.5992 11.8961 6.38278 11.9643 6.16372 11.9503H6.03273C5.37759 11.9459 4.74731 12.2008 4.27936 12.6593L0.74019 16.1095L0.701734 16.148C0.25654 16.6105 0.00545224 17.226 8.77543e-05 17.868C-0.00527673 18.5099 0.23549 19.1295 0.672892 19.5994C0.695725 19.6235 0.717357 19.6463 0.741392 19.6692L6.44974 25.2369C6.92006 25.6977 7.55186 25.9565 8.21031 25.9579C8.86544 25.9623 9.49572 25.7074 9.96367 25.2489L13.504 21.789C13.7402 21.5581 13.9275 21.2821 14.0549 20.9774C14.1822 20.6727 14.2471 20.3455 14.2455 20.0153Z" fill="black"/>
</svg>
