<svg width="49" height="60" viewBox="0 0 49 60" fill="none" xmlns="http://www.w3.org/2000/svg">
<path d="M24.1667 6.408L6.04167 13.158V24C6.04209 27.8563 6.87246 31.6679 8.47711 35.1795C10.0818 38.6911 12.4237 41.8215 15.3458 44.361L24.1667 52.026V6.408ZM1.96052 8.268L24.1667 0L46.3728 8.271C46.9485 8.48531 47.4446 8.86896 47.795 9.37072C48.1453 9.87247 48.3331 10.4684 48.3333 11.079V24C48.3333 33.531 44.1888 42.6 36.9659 48.879L24.1667 60L11.3674 48.879C7.79666 45.7762 4.93511 41.9512 2.97459 37.6603C1.01406 33.3694 -0.000130416 28.7119 1.25786e-08 24V11.079C0.000230864 10.4684 0.18805 9.87247 0.538369 9.37072C0.888689 8.86896 1.38483 8.48531 1.96052 8.271V8.268Z" fill="black"/>
</svg>
