<svg width="44" height="60" viewBox="0 0 44 60" fill="none" xmlns="http://www.w3.org/2000/svg">
<path d="M43.3845 29.9212C43.3845 24.3557 41.5971 20.2159 37.409 16.0817C36.8663 15.546 36.1304 15.2452 35.3632 15.2455C34.5959 15.2458 33.8602 15.5471 33.3179 16.0832C32.7756 16.6193 32.471 17.3462 32.4713 18.1041C32.4716 18.862 32.7766 19.5887 33.3193 20.1244C36.4401 23.2043 37.5999 25.8585 37.5999 29.9212C37.6058 31.9851 37.197 34.0297 36.3972 35.9365C35.5974 37.8433 34.4224 39.5743 32.9404 41.0293C30.0366 43.8949 26.9303 45.3205 23.0257 45.5805L26.6295 42.0178C26.898 41.7525 27.111 41.4376 27.2563 41.0911C27.4017 40.7445 27.4765 40.373 27.4765 39.9979C27.4765 39.6228 27.4017 39.2513 27.2563 38.9047C27.111 38.5581 26.898 38.2432 26.6295 37.978C26.3609 37.7127 26.0421 37.5023 25.6913 37.3587C25.3404 37.2152 24.9644 37.1413 24.5846 37.1413C24.2048 37.1413 23.8288 37.2152 23.4779 37.3587C23.1271 37.5023 22.8083 37.7127 22.5398 37.978L11.818 48.569L22.5398 59.1599C22.8077 59.4262 23.1264 59.6374 23.4773 59.7816C23.8282 59.9258 24.2045 60 24.5846 60C24.9647 60 25.341 59.9258 25.6919 59.7816C26.0429 59.6374 26.3615 59.4262 26.6295 59.1599C26.8983 58.8948 27.1116 58.58 27.2571 58.2334C27.4026 57.8868 27.4775 57.5152 27.4775 57.14C27.4775 56.7648 27.4026 56.3933 27.2571 56.0467C27.1116 55.7001 26.8983 55.3852 26.6295 55.1201L22.7625 51.3031C28.3243 51.0688 33.007 49.0404 37.0302 45.072C39.0513 43.0874 40.6537 40.7263 41.7445 38.1256C42.8353 35.5249 43.3927 32.7362 43.3845 29.9212ZM5.78468 29.9983C5.78468 25.8013 7.43907 21.8558 10.4442 18.8873C13.3625 16.0046 16.4949 14.579 20.4428 14.3333L16.7552 17.976C16.3484 18.3748 16.0709 18.8842 15.9579 19.4393C15.845 19.9944 15.9018 20.5701 16.121 21.0932C16.3402 21.6163 16.712 22.0633 17.189 22.3771C17.6661 22.691 18.2268 22.8576 18.8 22.8557C19.1799 22.8561 19.5561 22.7824 19.907 22.6387C20.2579 22.4951 20.5766 22.2843 20.8449 22.0186L31.5666 11.4277L20.8449 0.836676C20.5763 0.571417 20.2575 0.361003 19.9067 0.217446C19.5558 0.0738885 19.1798 3.95267e-09 18.8 0C18.4202 -3.95267e-09 18.0442 0.0738878 17.6933 0.217445C17.3425 0.361002 17.0237 0.571417 16.7552 0.836676C16.4866 1.10194 16.2736 1.41684 16.1283 1.76342C15.983 2.11 15.9082 2.48146 15.9082 2.85659C15.9082 3.23172 15.983 3.60318 16.1283 3.94976C16.2736 4.29634 16.4866 4.61125 16.7552 4.87651L20.547 8.62206C15.0111 8.86777 10.3516 10.8963 6.35446 14.8475C4.33328 16.8321 2.73088 19.1931 1.64012 21.7938C0.549354 24.3946 -0.00808867 27.1832 8.86791e-05 29.9983C8.86791e-05 35.5638 1.78753 39.7036 5.97557 43.8377C6.24374 44.1038 6.56251 44.3148 6.91355 44.4587C7.26458 44.6027 7.64096 44.6766 8.02103 44.6764C8.4011 44.6761 8.77737 44.6016 9.12819 44.4572C9.47902 44.3128 9.79749 44.1013 10.0653 43.8349C10.3342 43.5695 10.5475 43.2544 10.6931 42.9076C10.8386 42.5608 10.9136 42.189 10.9136 41.8135C10.9136 41.4381 10.8386 41.0663 10.6931 40.7195C10.5475 40.3726 10.3342 40.0575 10.0653 39.7922C6.94449 36.7152 5.78468 34.061 5.78468 29.9983Z" fill="black"/>
</svg>
