<svg width="58" height="50" viewBox="0 0 58 50" fill="none" xmlns="http://www.w3.org/2000/svg">
<path d="M57.6923 15.3846C57.6901 13.3452 56.8789 11.3899 55.4368 9.94779C53.9947 8.50569 52.0394 7.69453 50 7.69231H44.2308V5.76923C44.2292 4.23962 43.6208 2.77312 42.5392 1.69153C41.4576 0.60993 39.9911 0.00159086 38.4615 0H19.2308C17.7012 0.00159086 16.2347 0.60993 15.1531 1.69153C14.0715 2.77312 13.4631 4.23962 13.4615 5.76923V7.69231H7.69231C5.65286 7.69453 3.69759 8.50569 2.25548 9.94779C0.813379 11.3899 0.00222699 13.3452 0 15.3846V21.1538H57.6923V15.3846ZM40.3846 7.69231H17.3077V5.76923C17.3077 5.2592 17.5103 4.77006 17.8709 4.40941C18.2316 4.04876 18.7207 3.84615 19.2308 3.84615H38.4615C38.9716 3.84615 39.4607 4.04876 39.8214 4.40941C40.182 4.77006 40.3846 5.2592 40.3846 5.76923V7.69231Z" fill="black"/>
<path d="M38.4615 25.9615C38.4615 26.7266 38.1576 27.4603 37.6166 28.0013C37.0757 28.5422 36.342 28.8462 35.5769 28.8462H22.1154C21.3503 28.8462 20.6166 28.5422 20.0757 28.0013C19.5347 27.4603 19.2308 26.7266 19.2308 25.9615V25.4808C19.2308 25.3533 19.1801 25.231 19.09 25.1408C18.9998 25.0507 18.8775 25 18.75 25H0V42.3077C0 44.3478 0.810437 46.3044 2.25302 47.747C3.69561 49.1896 5.65218 50 7.69231 50H50C52.0401 50 53.9967 49.1896 55.4393 47.747C56.8819 46.3044 57.6923 44.3478 57.6923 42.3077V25H38.9423C38.8148 25 38.6925 25.0507 38.6023 25.1408C38.5122 25.231 38.4615 25.3533 38.4615 25.4808V25.9615Z" fill="black"/>
</svg>
