<svg width="14" height="25" viewBox="0 0 14 25" fill="none" xmlns="http://www.w3.org/2000/svg">
<path d="M10.75 1H3.25C2.00736 1 1 2.00736 1 3.25V21.25C1 22.4926 2.00736 23.5 3.25 23.5H10.75C11.9926 23.5 13 22.4926 13 21.25V3.25C13 2.00736 11.9926 1 10.75 1Z" stroke="black" stroke-width="1.5" stroke-linecap="round" stroke-linejoin="round"/>
<path d="M3.25 1H4.375C4.47446 1 4.56984 1.03951 4.64017 1.10983C4.71049 1.18016 4.75 1.27554 4.75 1.375C4.75 1.57391 4.82902 1.76468 4.96967 1.90533C5.11032 2.04598 5.30109 2.125 5.5 2.125H8.5C8.69891 2.125 8.88968 2.04598 9.03033 1.90533C9.17098 1.76468 9.25 1.57391 9.25 1.375C9.25 1.27554 9.28951 1.18016 9.35983 1.10983C9.43016 1.03951 9.52554 1 9.625 1H10.75" stroke="black" stroke-width="1.5" stroke-linecap="round" stroke-linejoin="round"/>
</svg>
