<svg width="43" height="60" viewBox="0 0 43 60" fill="none" xmlns="http://www.w3.org/2000/svg">
<path d="M21.4286 0C9.59866 0 0 8.63973 0 19.2857C0 36.4286 21.4286 60 21.4286 60C21.4286 60 42.8571 36.4286 42.8571 19.2857C42.8571 8.63973 33.2585 0 21.4286 0ZM21.4286 30C19.7333 30 18.0761 29.4973 16.6665 28.5555C15.257 27.6136 14.1584 26.2749 13.5096 24.7087C12.8609 23.1425 12.6911 21.4191 13.0218 19.7564C13.3526 18.0937 14.1689 16.5664 15.3677 15.3677C16.5664 14.1689 18.0937 13.3526 19.7564 13.0218C21.4191 12.6911 23.1425 12.8609 24.7087 13.5096C26.2749 14.1584 27.6136 15.257 28.5555 16.6665C29.4973 18.0761 30 19.7333 30 21.4286C29.9975 23.7011 29.0937 25.8798 27.4867 27.4867C25.8798 29.0937 23.7011 29.9975 21.4286 30Z" fill="url(#paint0_linear)"/>
<defs>
<linearGradient id="paint0_linear" x1="21.4286" y1="0" x2="21.4286" y2="60" gradientUnits="userSpaceOnUse">
<stop stop-color="#FF7A00"/>
<stop offset="1" stop-color="#FFE600"/>
</linearGradient>
</defs>
</svg>
